<svg width="38" height="38" viewBox="0 0 38 38" fill="none" xmlns="http://www.w3.org/2000/svg">
<path d="M29.9738 8.93234C27.9555 8.00625 25.7912 7.32394 23.5282 6.93316C23.487 6.92562 23.4458 6.94446 23.4246 6.98216C23.1462 7.47724 22.8379 8.1231 22.622 8.63075C20.188 8.26636 17.7666 8.26636 15.3825 8.63075C15.1665 8.11182 14.847 7.47724 14.5674 6.98216C14.5462 6.94572 14.505 6.92687 14.4638 6.93316C12.2021 7.32269 10.0378 8.005 8.01818 8.93234C8.00069 8.93988 7.98571 8.95246 7.97576 8.96878C3.87045 15.102 2.74583 21.0845 3.29753 26.9929C3.30003 27.0218 3.31625 27.0494 3.33872 27.067C6.04729 29.0561 8.671 30.2637 11.246 31.0641C11.2872 31.0767 11.3309 31.0616 11.3571 31.0276C11.9662 30.1958 12.5092 29.3188 12.9747 28.3964C13.0022 28.3424 12.976 28.2783 12.9198 28.2569C12.0586 27.9302 11.2385 27.5319 10.4496 27.0796C10.3872 27.0431 10.3823 26.9539 10.4397 26.9112C10.6057 26.7868 10.7717 26.6573 10.9302 26.5267C10.9589 26.5028 10.9989 26.4978 11.0326 26.5128C16.215 28.879 21.8256 28.879 26.9469 26.5128C26.9807 26.4965 27.0206 26.5015 27.0506 26.5254C27.2091 26.6561 27.3751 26.7868 27.5424 26.9112C27.5998 26.9539 27.596 27.0431 27.5336 27.0796C26.7448 27.5407 25.9247 27.9302 25.0622 28.2557C25.006 28.2771 24.9811 28.3424 25.0085 28.3964C25.4841 29.3175 26.0271 30.1945 26.6249 31.0264C26.6499 31.0616 26.6948 31.0767 26.736 31.0641C29.3235 30.2637 31.9472 29.0561 34.6558 27.067C34.6795 27.0494 34.6945 27.023 34.697 26.9941C35.3573 20.1634 33.5911 14.23 30.015 8.97003C30.0063 8.95246 29.9913 8.93988 29.9738 8.93234ZM13.7486 23.3953C12.1884 23.3953 10.9027 21.9629 10.9027 20.2037C10.9027 18.4445 12.1634 17.012 13.7486 17.012C15.3463 17.012 16.6195 18.4571 16.5945 20.2037C16.5945 21.9629 15.3338 23.3953 13.7486 23.3953ZM24.2708 23.3953C22.7106 23.3953 21.425 21.9629 21.425 20.2037C21.425 18.4445 22.6856 17.012 24.2708 17.012C25.8685 17.012 27.1417 18.4571 27.1167 20.2037C27.1167 21.9629 25.8685 23.3953 24.2708 23.3953Z" fill="white"/>
</svg>
