<svg width="855" height="852" viewBox="0 0 855 852" fill="none" xmlns="http://www.w3.org/2000/svg">
<path d="M47.3285 220.841C47.3285 220.841 103.283 101.354 248.942 41.171C143.229 175.704 107.718 271.305 173.455 468.715L206.323 412.074C206.323 412.074 193.898 562.561 348.427 601.492C338.646 647.507 330.656 671.422 330.656 671.422C330.656 671.422 298.669 771.444 412.371 852C341.045 817.58 263.158 757.276 258.723 651.079C258.723 651.079 116.619 589.988 106.837 376.685C83.7507 405.021 74.8502 427.15 69.5342 459.906C69.5342 459.906 45.4451 296.008 135.27 174.008C96.175 187.298 73.9693 193.474 47.3285 220.931V220.841Z" fill="url(#paint0_linear_2_76)" fill-opacity="0.7" style="mix-blend-mode:screen"/>
<path d="M65.9802 236.795C65.9802 236.795 -9.50711 402.327 81.0776 548.363L96.1751 469.593C96.1751 469.593 105.045 585.538 225.855 662.553C225.855 662.553 14.4605 653.713 0.243958 438.594C2.91715 276.603 65.9802 236.764 65.9802 236.764V236.795Z" fill="url(#paint1_linear_2_76)" fill-opacity="0.7" style="mix-blend-mode:screen"/>
<path d="M47.3285 613.874C47.3285 613.874 86.4239 681.14 229.865 682.926C240.953 726.307 245.418 772.322 327.133 838.71C327.133 838.71 244.537 812.161 204.561 726.307C112.184 728.063 66.0105 663.461 47.3589 613.904L47.3285 613.874Z" fill="url(#paint2_linear_2_76)" fill-opacity="0.7" style="mix-blend-mode:screen"/>
<path d="M190.77 745.319C190.77 745.319 192.106 763.028 225.855 797.115C170.842 768.78 147.239 744.017 137.032 732.937C137.032 732.937 157.901 744.017 190.77 745.319Z" fill="url(#paint3_linear_2_76)" fill-opacity="0.7" style="mix-blend-mode:screen"/>
<path d="M459.911 0C459.911 0 663.773 17.7096 766.782 164.654C766.782 164.654 672.187 96.51 645.546 90.7278C709.946 187.208 767.663 317.32 713.5 498.806C713.5 498.806 711.738 409.411 686.859 380.197C681.543 531.562 630.905 603.248 534.973 662.583C534.973 662.583 471.91 602.4 417.718 662.583C370.633 726.307 426.588 817.489 474.553 847.58C474.553 847.58 367.079 829.871 359.09 710.384C362.006 636.639 389.285 619.202 399.947 559.897C399.947 559.897 415.044 524.478 391.077 498.806C373.306 530.684 336.884 529.776 336.884 529.776C336.884 529.776 318.445 534.619 309.362 558.989C307.6 498.806 332.449 481.097 343.992 474.891C343.992 474.891 460.337 470.471 468.356 362.488C487.889 467.837 439.923 484.639 439.923 484.639C439.923 484.639 475.465 521.814 469.237 574.034C526.073 545.699 650.437 485.517 625.558 312.023C625.558 312.023 646.002 325.312 650.437 349.198C653.11 268.642 669.089 127.903 459.911 0Z" fill="url(#paint4_linear_2_76)" fill-opacity="0.7" style="mix-blend-mode:screen"/>
<path d="M518.084 718.315C518.084 718.315 647.338 646.72 685.948 551.027C629.993 696.186 581.724 740.051 493.205 775.864C473.672 780.738 481.661 755.49 469.237 732.937C469.237 732.937 445.695 793.12 521.212 838.711C449.279 814.825 414.619 737.357 437.706 692.22C472.791 646.629 516.322 682.926 518.084 718.346V718.315Z" fill="url(#paint5_linear_2_76)" fill-opacity="0.7" style="mix-blend-mode:screen"/>
<path d="M681.968 661.22C681.968 661.22 767.237 636.426 842.724 527.111C842.724 527.111 828.083 690.433 671.731 743.986C671.731 743.986 681.513 747.982 711.708 743.986C666.932 790.606 612.222 806.379 582.483 804.169C582.483 804.169 583.364 813.917 598.461 818.336C546.486 829.84 529.627 805.955 516.747 793.543C574.919 774.501 621.123 750.616 681.968 661.22Z" fill="url(#paint6_linear_2_76)" fill-opacity="0.7" style="mix-blend-mode:screen"/>
<path d="M730.359 178.974C730.359 178.974 783.064 229.711 794.911 287.532C802.596 251.538 796.673 227.925 791.357 191.93C791.357 191.93 866.57 292.83 819.182 397.302C829.51 388.159 836.072 380.531 852.354 348.32C852.354 348.32 881.364 512.944 700.772 618.597C700.772 618.597 827.202 428.876 730.39 178.974H730.359Z" fill="url(#paint7_linear_2_76)" fill-opacity="0.7" style="mix-blend-mode:screen"/>
<path d="M359.97 454.82C359.97 454.82 432.511 407.624 415.621 323.224C415.621 323.224 483.12 440.955 359.97 454.82Z" fill="url(#paint8_linear_2_76)" fill-opacity="0.7" style="mix-blend-mode:screen"/>
<defs>
<linearGradient id="paint0_linear_2_76" x1="93.5336" y1="-167.887" x2="655.836" y2="581.277" gradientUnits="userSpaceOnUse">
<stop offset="0.0663548" stop-color="#240C6A"/>
<stop offset="0.718578" stop-color="#2400FF" stop-opacity="0"/>
</linearGradient>
<linearGradient id="paint1_linear_2_76" x1="28.8006" y1="126.982" x2="307.629" y2="564.199" gradientUnits="userSpaceOnUse">
<stop offset="0.0663548" stop-color="#240C6A"/>
<stop offset="0.718578" stop-color="#2400FF" stop-opacity="0"/>
</linearGradient>
<linearGradient id="paint2_linear_2_76" x1="82.7446" y1="555.903" x2="164.874" y2="858.371" gradientUnits="userSpaceOnUse">
<stop offset="0.0663548" stop-color="#240C6A"/>
<stop offset="0.718578" stop-color="#2400FF" stop-opacity="0"/>
</linearGradient>
<linearGradient id="paint3_linear_2_76" x1="148.275" y1="716.39" x2="169.636" y2="803.878" gradientUnits="userSpaceOnUse">
<stop offset="0.0663548" stop-color="#240C6A"/>
<stop offset="0.718578" stop-color="#2400FF" stop-opacity="0"/>
</linearGradient>
<linearGradient id="paint4_linear_2_76" x1="367.182" y1="-218.534" x2="917.822" y2="661.053" gradientUnits="userSpaceOnUse">
<stop offset="0.0663548" stop-color="#240C6A"/>
<stop offset="0.718578" stop-color="#2400FF" stop-opacity="0"/>
</linearGradient>
<linearGradient id="paint5_linear_2_76" x1="462.93" y1="476.853" x2="601.109" y2="839.794" gradientUnits="userSpaceOnUse">
<stop offset="0.0663548" stop-color="#240C6A"/>
<stop offset="0.718578" stop-color="#2400FF" stop-opacity="0"/>
</linearGradient>
<linearGradient id="paint6_linear_2_76" x1="558.007" y1="451.238" x2="676.635" y2="840.117" gradientUnits="userSpaceOnUse">
<stop offset="0.0663548" stop-color="#240C6A"/>
<stop offset="0.718578" stop-color="#2400FF" stop-opacity="0"/>
</linearGradient>
<linearGradient id="paint7_linear_2_76" x1="720.175" y1="65.6244" x2="1037.53" y2="393.109" gradientUnits="userSpaceOnUse">
<stop offset="0.0663548" stop-color="#240C6A"/>
<stop offset="0.718578" stop-color="#2400FF" stop-opacity="0"/>
</linearGradient>
<linearGradient id="paint8_linear_2_76" x1="369.351" y1="289.294" x2="453.214" y2="429.059" gradientUnits="userSpaceOnUse">
<stop offset="0.0663548" stop-color="#240C6A"/>
<stop offset="0.718578" stop-color="#2400FF" stop-opacity="0"/>
</linearGradient>
</defs>
</svg>
