<svg width="75" height="28" viewBox="0 0 75 28" fill="none" xmlns="http://www.w3.org/2000/svg">
<path d="M21.8897 3.98268H3.89672L5.19293 0.342285H23.1859L21.8897 3.98268ZM21.2416 5.80287H3.24052L1.94431 9.44326H19.9373L21.2416 5.80287ZM19.2973 11.2469H1.29621L0 14.8873H17.9768L19.2973 11.2469Z" fill="white"/>
<path d="M64.2154 23.9965H67.4559C67.9165 24.0527 68.3835 23.9923 68.8159 23.8206C69.2482 23.6489 69.6325 23.3712 69.9349 23.012C70.3794 22.4179 70.6033 21.6821 70.5668 20.9353C70.5972 20.4601 70.5118 19.9847 70.3181 19.5515C70.1244 19.1183 69.8285 18.741 69.4569 18.4532C68.8554 18.0513 68.1401 17.865 67.4235 17.9237H64.2154V23.9965ZM59.9622 27.6617V5.80295H73.8883L72.6651 9.46814H64.2154V14.3082H67.6584C70.4372 14.3082 71.8792 14.9866 72.8757 15.8553C73.5881 16.4996 74.1484 17.3003 74.5146 18.1973C74.8808 19.0943 75.0434 20.0643 74.9901 21.0346C75.0448 22.0795 74.843 23.1218 74.403 24.0667C73.963 25.0117 73.2987 25.8294 72.4706 26.4455C71.1339 27.3887 69.7324 27.6535 66.8807 27.6535L59.9622 27.6617ZM47.632 27.6617V9.45987H41.4427V5.80295H58.6255L57.4022 9.46814H51.9257V27.67L47.632 27.6617ZM30.4816 14.5564H32.912C33.409 14.5911 33.9084 14.5521 34.3945 14.4406C34.9001 14.2756 35.3357 13.9402 35.6301 13.4892C35.9245 13.0382 36.0601 12.4985 36.0148 11.9585C36.0822 11.4219 35.9545 10.8787 35.6559 10.4319C35.3572 9.98505 34.9084 9.66568 34.3945 9.53433C33.8638 9.40849 33.3185 9.35837 32.7743 9.38541H30.4816V14.5564ZM30.4816 18.3374V24.071H33.4467C34.2638 24.1664 35.0854 23.9351 35.7393 23.4257C36.0407 23.1405 36.2768 22.791 36.4308 22.402C36.5849 22.0131 36.653 21.5942 36.6305 21.1753C36.6434 20.5059 36.4445 19.8501 36.0634 19.3054C35.4315 18.4781 34.6538 18.3209 33.3252 18.3209L30.4816 18.3374ZM37.3353 16.0291V16.1035C38.0576 16.3875 38.7326 16.7838 39.3363 17.2784C39.9466 17.7956 40.4289 18.4525 40.7442 19.1956C41.0595 19.9388 41.1989 20.7474 41.151 21.5558C41.151 24.5426 39.5956 26.702 37.0436 27.3473C36.0264 27.6013 34.9787 27.7044 33.9327 27.6535H26.2284V5.80295H33.0821C34.1707 5.76231 35.2598 5.8652 36.3226 6.10907C38.8016 6.7875 40.43 8.53323 40.43 11.2883C40.4502 11.9452 40.3393 12.5994 40.1039 13.211C39.8685 13.8227 39.5136 14.379 39.0609 14.846C38.58 15.3446 38.0074 15.741 37.3758 16.0125L37.3353 16.0291Z" fill="white"/>
</svg>
