<svg width="109" height="41" viewBox="0 0 109 41" fill="none" xmlns="http://www.w3.org/2000/svg">
<path d="M2.25278 10.5408C2.25278 10.5408 4.92993 4.83779 11.8989 1.96533C6.84114 8.38646 5.14212 12.9494 8.28726 22.3716L9.85983 19.6682C9.85983 19.6682 9.2654 26.8508 16.6588 28.709C16.1908 30.9052 15.8086 32.0467 15.8086 32.0467C15.8086 32.0467 14.2781 36.8206 19.7182 40.6655C16.3056 39.0226 12.5791 36.1444 12.3669 31.0757C12.3669 31.0757 5.56797 28.1599 5.09997 17.9791C3.99539 19.3316 3.56955 20.3878 3.31521 21.9512C3.31521 21.9512 2.16267 14.1285 6.46035 8.30555C4.58983 8.93986 3.5274 9.23462 2.25278 10.5451V10.5408Z" fill="white"/>
<path d="M3.14514 11.3021C3.14514 11.3021 -0.466539 19.2028 3.86748 26.173L4.58981 22.4134C4.58981 22.4134 5.0142 27.9473 10.7943 31.6232C10.7943 31.6232 0.680188 31.2012 0 20.9338C0.127899 13.2021 3.14514 11.3007 3.14514 11.3007V11.3021Z" fill="white"/>
<path d="M2.25278 29.2997C2.25278 29.2997 4.12329 32.5102 10.9862 32.5955C11.5167 34.666 11.7303 36.8623 15.64 40.0309C15.64 40.0309 11.6882 38.7638 9.77554 34.666C5.35577 34.7498 3.14661 31.6664 2.25423 29.3011L2.25278 29.2997Z" fill="white"/>
<path d="M9.11565 35.5736C9.11565 35.5736 9.1796 36.4189 10.7943 38.0458C8.16223 36.6934 7.03294 35.5115 6.5446 34.9827C6.5446 34.9827 7.54308 35.5115 9.11565 35.5736Z" fill="white"/>
<path d="M21.9927 0C21.9927 0 31.7464 0.845265 36.6749 7.8588C36.6749 7.8588 32.149 4.60634 30.8744 4.33036C33.9556 8.93525 36.717 15.1454 34.1256 23.8076C34.1256 23.8076 34.0414 19.5408 32.851 18.1465C32.5967 25.371 30.1739 28.7925 25.5841 31.6245C25.5841 31.6245 22.5668 28.752 19.974 31.6245C17.7212 34.666 20.3984 39.018 22.6933 40.4543C22.6933 40.4543 17.5512 39.609 17.1689 33.906C17.3084 30.3862 18.6136 29.554 19.1237 26.7234C19.1237 26.7234 19.8461 25.0329 18.6993 23.8076C17.8491 25.3291 16.1065 25.2857 16.1065 25.2857C16.1065 25.2857 15.2243 25.5169 14.7897 26.68C14.7054 23.8076 15.8943 22.9623 16.4466 22.6661C16.4466 22.6661 22.0131 22.4552 22.3968 17.3012C23.3313 22.3295 21.0364 23.1314 21.0364 23.1314C21.0364 23.1314 22.7369 24.9057 22.4389 27.3982C25.1582 26.0457 31.1084 23.1733 29.9181 14.8926C29.9181 14.8926 30.8962 15.5269 31.1084 16.6669C31.2363 12.822 32.0008 6.1047 21.9927 0Z" fill="white"/>
<path d="M24.776 34.2848C24.776 34.2848 30.9602 30.8676 32.8074 26.3003C30.1303 33.2286 27.8209 35.3222 23.5857 37.0316C22.6511 37.2642 23.0334 36.0591 22.4389 34.9827C22.4389 34.9827 21.3126 37.8551 24.9257 40.0312C21.4841 38.8911 19.8257 35.1936 20.9303 33.0393C22.609 30.8633 24.6917 32.5957 24.776 34.2862V34.2848Z" fill="white"/>
<path d="M32.617 31.5596C32.617 31.5596 36.6967 30.3762 40.3084 25.1587C40.3084 25.1587 39.6079 32.9539 32.1272 35.5099C32.1272 35.5099 32.5952 35.7007 34.0399 35.5099C31.8976 37.7351 29.28 38.4879 27.8572 38.3824C27.8572 38.3824 27.8993 38.8477 28.6217 39.0586C26.1349 39.6077 25.3283 38.4676 24.712 37.8752C27.4953 36.9664 29.7059 35.8264 32.617 31.5596Z" fill="white"/>
<path d="M34.9323 8.54224C34.9323 8.54224 37.4539 10.9639 38.0208 13.7236C38.3885 12.0057 38.1051 10.8786 37.8507 9.16065C37.8507 9.16065 41.4493 13.9765 39.182 18.9628C39.6762 18.5265 39.9901 18.1624 40.7691 16.625C40.7691 16.625 42.1571 24.4824 33.5167 29.5251C33.5167 29.5251 39.5657 20.4699 34.9338 8.54224H34.9323Z" fill="white"/>
<path d="M17.2111 21.7083C17.2111 21.7083 20.6818 19.4557 19.8737 15.4274C19.8737 15.4274 23.1031 21.0466 17.2111 21.7083Z" fill="white"/>
<path d="M49.4343 13.5387V12.8385C47.7077 12.7467 47 11.863 47 10.3368C47 8.81066 47.8069 8.02549 49.4343 7.92692V7.34229H50.5797V7.92692C52.2174 8.02549 53.014 8.81746 53.014 10.3368C53.014 11.8562 52.3165 12.7467 50.5797 12.8385V13.5387H49.4343ZM49.4514 8.90583C48.4975 8.94662 48.1556 9.41909 48.1556 10.3844C48.1556 11.3497 48.5112 11.8222 49.4514 11.88V8.90924V8.90583ZM50.5728 11.8766C51.5131 11.8188 51.8686 11.3157 51.8686 10.381C51.8686 9.44627 51.5267 8.94322 50.5728 8.90243V11.8732V11.8766Z" fill="white"/>
<path d="M54.0773 13.4976V7.61731H57.9716V8.64042H55.2295V10.0204H57.5647V11.0435H55.2295V12.4711H57.9716V13.4942H54.0773V13.4976Z" fill="white"/>
<path d="M62.9223 14.8031V13.4979H59.64V14.8031H58.5255V12.4748H59.0827C59.5717 11.7236 59.7871 10.4761 59.7871 9.12333V7.62097H63.3497V12.4748H64.03V14.8031H62.9154H62.9223ZM62.2009 8.64408H60.8982V9.49383C60.8982 10.6563 60.782 11.6556 60.3751 12.4748H62.2009V8.64408Z" fill="white"/>
<path d="M64.9532 13.4976V7.61731H68.8474V8.64042H66.1054V10.0204H68.4405V11.0435H66.1054V12.4711H68.8474V13.4942H64.9532V13.4976Z" fill="white"/>
<path d="M72.2698 7.62071C73.4083 7.62071 74.2221 8.38209 74.2221 9.45277C74.2221 10.5235 73.4152 11.2848 72.2698 11.2848H71.1313V13.4976H69.9757V7.61731H72.2698V7.62071ZM72.2117 10.2549C72.728 10.2549 73.0665 9.94223 73.0665 9.45277C73.0665 8.96332 72.7246 8.64382 72.2117 8.64382H71.1313V10.2549H72.2117Z" fill="white"/>
<path d="M78.1436 13.4976L77.7949 12.4575H75.6922L75.3367 13.4976H74.1332L76.2837 7.61731H77.1897L79.3505 13.4976H78.1471H78.1436ZM76.7658 9.35421L76.017 11.4922H77.4872L76.7658 9.35421Z" fill="white"/>
<path d="M83.9628 14.8028V13.4976H80.0754V7.61731H81.231V12.4711H83.2311V7.61731H84.3867V12.4711H85.0774V14.7994H83.9662L83.9628 14.8028Z" fill="white"/>
<path d="M89.3204 13.4976V9.7247L87.0194 13.4976H85.9903V7.61731H87.1459V11.3834L89.4469 7.61731H90.476V13.4976H89.3204Z" fill="white"/>
<path d="M92.7974 13.4979H91.4264L92.647 11.054C92.0247 10.7719 91.635 10.194 91.635 9.45303C91.635 8.33136 92.4418 7.62097 93.577 7.62097H95.8677V13.5013H94.7121V11.2885H93.765L92.794 13.5013L92.7974 13.4979ZM94.7155 8.62708H93.6351C93.1188 8.62708 92.7803 8.94998 92.7803 9.43604C92.7803 9.9221 93.1222 10.2688 93.6351 10.2688H94.7155V8.62708Z" fill="white"/>
<path d="M48.1454 21.6215C48.2616 22.0906 48.5864 22.4543 49.1574 22.4543C49.4822 22.4543 49.7386 22.3319 49.913 22.1314C50.1113 21.9172 50.1865 21.6759 50.2104 20.9519H48.3676V19.9526H50.2036C50.1797 19.2524 50.1113 19.0111 49.913 18.797C49.7386 18.5998 49.4822 18.474 49.1574 18.474C48.583 18.474 48.2684 18.8377 48.1454 19.3068H47C47.1983 18.1002 48.0633 17.4747 49.1676 17.4747C49.8173 17.4747 50.3404 17.6991 50.7609 18.1171C51.3592 18.712 51.3421 19.4462 51.3421 20.4625C51.3421 21.4788 51.3592 22.213 50.7609 22.8078C50.3369 23.2293 49.8138 23.4502 49.1676 23.4502C48.0701 23.4502 47.1983 22.8214 47 21.6181H48.1454V21.6215Z" fill="white"/>
<path d="M55.5099 23.4058V18.552H54.0979V20.2617C54.0979 22.7294 53.4927 23.4058 52.2619 23.4058H51.8037V22.3827H51.9712C52.5593 22.3827 52.9833 22.036 52.9833 20.1937V17.5255H56.6621V23.4058H55.5065H55.5099Z" fill="white"/>
<path d="M58.0502 23.4058V17.5255H61.9445V18.5486H59.2024V19.9286H61.5376V20.9517H59.2024V22.3793H61.9445V23.4024H58.0502V23.4058Z" fill="white"/>
<path d="M63.0932 23.4058V17.5255H64.2488V20.3161L66.16 17.5255H67.5379L65.5515 20.2821L67.7362 23.4024H66.3242L64.2488 20.3297V23.4024H63.0932V23.4058Z" fill="white"/>
<path d="M70.6491 18.5486V23.4024H69.4935V18.5486H67.9481V17.5255H72.1911V18.5486H70.6457H70.6491Z" fill="white"/>
<path d="M75.4255 17.5257C76.564 17.5257 77.3777 18.2871 77.3777 19.3578C77.3777 20.4285 76.5709 21.1899 75.4255 21.1899H74.287V23.4026H73.1313V17.5223H75.4221L75.4255 17.5257ZM75.3674 20.16C75.8836 20.16 76.2221 19.8473 76.2221 19.3578C76.2221 18.8683 75.8802 18.5488 75.3674 18.5488H74.287V20.16H75.3674Z" fill="white"/>
<path d="M82.5166 20.6802C82.5166 21.4483 82.5097 22.2165 81.9285 22.8113C81.5148 23.2396 80.9746 23.4537 80.3352 23.4537C79.6959 23.4537 79.1488 23.2294 78.7317 22.8113C78.1573 22.2267 78.1505 21.3498 78.1505 20.7141V20.2281C78.1505 19.0554 78.2736 18.5864 78.7317 18.1241C79.1454 17.7026 79.6959 17.4817 80.3352 17.4817C80.9746 17.4817 81.5148 17.706 81.9285 18.1241C82.3422 18.5456 82.5166 19.1064 82.5166 20.0547V20.6836V20.6802ZM81.0703 18.8141C80.8857 18.6068 80.6293 18.5014 80.3318 18.5014C80.0344 18.5014 79.7677 18.6102 79.5831 18.8141C79.3164 19.103 79.2993 19.657 79.2993 20.3844V20.6802C79.2993 21.292 79.3061 21.846 79.5831 22.1179C79.7814 22.3151 80.0309 22.4307 80.3318 22.4307C80.6327 22.4307 80.8891 22.3219 81.0703 22.1179C81.3096 21.846 81.3609 21.5571 81.3609 20.3607C81.3609 19.3953 81.3028 19.0724 81.0703 18.8175V18.8141Z" fill="white"/>
<path d="M86.8518 23.4058V20.9449H84.8517V23.4058H83.6961V17.5255H84.8517V19.9286H86.8518V17.5255H88.0074V23.4058H86.8518Z" fill="white"/>
<path d="M92.541 23.4058V20.9449H90.5409V23.4058H89.3853V17.5255H90.5409V19.9286H92.541V17.5255H93.6966V23.4058H92.541Z" fill="white"/>
<path d="M99.2423 20.6802C99.2423 21.4483 99.2354 22.2165 98.6542 22.8113C98.2405 23.2396 97.7003 23.4537 97.0609 23.4537C96.4216 23.4537 95.8746 23.2294 95.4574 22.8113C94.883 22.2267 94.8762 21.3498 94.8762 20.7141V20.2281C94.8762 19.0554 94.9993 18.5864 95.4574 18.1241C95.8711 17.7026 96.4216 17.4817 97.0609 17.4817C97.7003 17.4817 98.2405 17.706 98.6542 18.1241C99.0679 18.5422 99.2423 19.1064 99.2423 20.0547V20.6836V20.6802ZM97.796 18.8141C97.6114 18.6068 97.355 18.5014 97.0575 18.5014C96.7601 18.5014 96.4934 18.6102 96.3088 18.8141C96.0421 19.103 96.025 19.657 96.025 20.3844V20.6802C96.025 21.292 96.0318 21.846 96.3088 22.1179C96.5071 22.3151 96.7567 22.4307 97.0575 22.4307C97.3584 22.4307 97.6148 22.3219 97.796 22.1179C98.0354 21.846 98.0866 21.5571 98.0866 20.3607C98.0866 19.3953 98.0285 19.0724 97.796 18.8175V18.8141Z" fill="white"/>
<path d="M101.598 18.5488V23.4026H100.442V17.5223H104.162V18.5454H101.594L101.598 18.5488Z" fill="white"/>
<path d="M109 20.6802C109 21.4483 108.993 22.2165 108.412 22.8113C107.998 23.2396 107.458 23.4537 106.819 23.4537C106.179 23.4537 105.632 23.2294 105.215 22.8113C104.641 22.2267 104.634 21.3498 104.634 20.7141V20.2281C104.634 19.0554 104.757 18.5864 105.215 18.1241C105.629 17.7026 106.179 17.4817 106.819 17.4817C107.458 17.4817 107.998 17.706 108.412 18.1241C108.826 18.5422 109 19.1064 109 20.0547V20.6836V20.6802ZM107.554 18.8141C107.369 18.6068 107.113 18.5014 106.815 18.5014C106.518 18.5014 106.251 18.6102 106.067 18.8141C105.8 19.103 105.783 19.657 105.783 20.3844V20.6802C105.783 21.292 105.79 21.846 106.067 22.1179C106.265 22.3151 106.514 22.4307 106.815 22.4307C107.116 22.4307 107.373 22.3219 107.554 22.1179C107.793 21.846 107.844 21.5571 107.844 20.3607C107.844 19.3953 107.786 19.0724 107.554 18.8175V18.8141Z" fill="white"/>
<path d="M49.1745 33.3615C48.5249 33.3615 47.995 33.1303 47.5813 32.719C46.983 32.1242 47 31.39 47 30.3737C47 29.3574 46.983 28.6232 47.5813 28.0284C47.995 27.6171 48.5283 27.386 49.1745 27.386C50.2789 27.386 51.1439 28.0148 51.349 29.2452H50.1763C50.06 28.7762 49.7626 28.4125 49.1779 28.4125C48.8634 28.4125 48.6036 28.5281 48.4394 28.7184C48.2138 28.9665 48.1488 29.2452 48.1488 30.3771C48.1488 31.509 48.2138 31.7877 48.4394 32.0358C48.607 32.2262 48.8634 32.3418 49.1779 32.3418C49.7592 32.3418 50.06 31.9781 50.1763 31.509H51.349C51.1405 32.7394 50.2686 33.3682 49.1745 33.3682V33.3615Z" fill="white"/>
<path d="M55.5031 33.3105V28.4567H53.503V33.3105H52.3473V27.4302H56.6587V33.3105H55.5031Z" fill="white"/>
<path d="M62.2043 30.5881C62.2043 31.3563 62.1974 32.1245 61.6162 32.7193C61.2025 33.1476 60.6623 33.3617 60.023 33.3617C59.3836 33.3617 58.8366 33.1374 58.4195 32.7193C57.8451 32.1347 57.8382 31.2577 57.8382 30.6221V30.136C57.8382 28.9634 57.9613 28.4943 58.4195 28.0321C58.8332 27.6106 59.3836 27.3896 60.023 27.3896C60.6623 27.3896 61.2025 27.614 61.6162 28.0321C62.0299 28.4535 62.2043 29.0144 62.2043 29.9627V30.5915V30.5881ZM60.758 28.7221C60.5768 28.5147 60.317 28.4094 60.0195 28.4094C59.7221 28.4094 59.4554 28.5181 59.2708 28.7221C59.0041 29.011 58.987 29.565 58.987 30.2924V30.5881C58.987 31.1999 58.9938 31.754 59.2708 32.0259C59.4691 32.223 59.7187 32.3386 60.0195 32.3386C60.3204 32.3386 60.5768 32.2298 60.758 32.0259C60.9974 31.754 61.0487 31.4651 61.0487 30.2686C61.0487 29.3033 60.9905 28.9804 60.758 28.7255V28.7221Z" fill="white"/>
<path d="M65.6746 27.4336C66.8131 27.4336 67.6269 28.195 67.6269 29.2656C67.6269 30.3363 66.82 31.0977 65.6746 31.0977H64.5361V33.3105H63.3805V27.4302H65.6712L65.6746 27.4336ZM65.6165 30.0678C66.1328 30.0678 66.4712 29.7551 66.4712 29.2656C66.4712 28.7762 66.1293 28.4567 65.6165 28.4567H64.5361V30.0678H65.6165Z" fill="white"/>
<path d="M70.8578 28.4572V33.311H69.7021V28.4572H68.1568V27.4341H72.3997V28.4572H70.8543H70.8578Z" fill="white"/>
<path d="M76.2051 33.3105L75.8564 32.2704H73.7537L73.3981 33.3105H72.1946L74.3452 27.4302H75.2512L77.412 33.3105H76.2085H76.2051ZM74.8272 29.1671L74.0785 31.305H75.5487L74.8272 29.1671Z" fill="white"/>
</svg>
