<svg width="10" height="16" viewBox="0 0 10 16" fill="none" xmlns="http://www.w3.org/2000/svg">
<path d="M0.454166 0.389582C0.713889 0.12986 1.04444 -3.62774e-07 1.44583 -3.45229e-07C1.84722 -3.27684e-07 2.17778 0.12986 2.4375 0.389582L8.95417 6.90625C9.09583 7.04792 9.19594 7.20139 9.2545 7.36667C9.31306 7.53194 9.34281 7.70903 9.34375 7.89792C9.34375 8.08681 9.30833 8.27003 9.2375 8.44758C9.16667 8.62514 9.07222 8.77247 8.95417 8.88958L2.4375 15.4062C2.17778 15.666 1.84722 15.7958 1.44583 15.7958C1.04444 15.7958 0.713888 15.666 0.454166 15.4062C0.194444 15.1465 0.0645822 14.816 0.0645822 14.4146C0.0645822 14.0132 0.194444 13.6826 0.454166 13.4229L5.97917 7.89792L0.454166 2.37292C0.194445 2.11319 0.0645827 1.78264 0.0645828 1.38125C0.0645828 0.979861 0.194445 0.649305 0.454166 0.389582Z" fill="#DBCFFF" fill-opacity="0.97"/>
</svg>
