<svg width="10" height="16" viewBox="0 0 10 16" fill="none" xmlns="http://www.w3.org/2000/svg">
<path d="M8.88958 15.6104C8.62986 15.8701 8.29931 16 7.89792 16C7.49653 16 7.16597 15.8701 6.90625 15.6104L0.389583 9.09375C0.247916 8.95208 0.147805 8.79861 0.0892493 8.63333C0.0306937 8.46806 0.000944108 8.29097 -3.45229e-07 8.10208C-3.53485e-07 7.91319 0.035416 7.72997 0.106249 7.55242C0.177083 7.37486 0.271527 7.22753 0.389582 7.11042L6.90625 0.593752C7.16597 0.334029 7.49653 0.204166 7.89792 0.204166C8.29931 0.204166 8.62986 0.334029 8.88958 0.593752C9.1493 0.853473 9.27917 1.18403 9.27917 1.58542C9.27917 1.98681 9.1493 2.31736 8.88958 2.57708L3.36458 8.10208L8.88958 13.6271C9.14931 13.8868 9.27917 14.2174 9.27917 14.6187C9.27917 15.0201 9.14931 15.3507 8.88958 15.6104Z" fill="#DBCFFF" fill-opacity="0.97"/>
</svg>
